# xmcd CD database file
#
# Track frame offsets:
#	150
#	24011
#	40092
#	58023
#	72667
#	99275
#	113337
#	132005
#	153431
#	173163
#	192644
#	207107
#	227519
#	246310
#	265660
#
# Disc length: 3728 seconds
#
# Revision: 0
# Processed by: cddbd v1.5.2PL0 Copyright (c) Steve Scherf et al.
# Submitted via: CDex 1.70beta2
#
DISCID=bf0e8e0f
DTITLE=Chicago Hot Club (CH) - Jazz and Blues Alstars
DYEAR=2015
DGENRE=Jazz
TTITLE0=Someday You'll Be Sorry
TTITLE1=In The Sweet Bye And Bye
TTITLE2=What A Wonderful World
TTITLE3=Summerset
TTITLE4=Oh Lady Be Good
TTITLE5=Blues In The Air
TTITLE6=Indiana
TTITLE7=C'Est Si Bon
TTITLE8=Chinatown, My Chinatown
TTITLE9=C-Jam Blues
TTITLE10=Please Don't Talk ...
TTITLE11=Rose Room
TTITLE12=Lazy River
TTITLE13=I Shall Not Be Moved
TTITLE14=Chicago
EXTD=YEAR: 2015
EXTT0=
EXTT1=
EXTT2=
EXTT3=
EXTT4=
EXTT5=
EXTT6=
EXTT7=
EXTT8=
EXTT9=
EXTT10=
EXTT11=
EXTT12=
EXTT13=
EXTT14=
PLAYORDER=
